HIERARCHY
ROOT Hips
{
	OFFSET 0.000000 0.000000 0.000000
	CHANNELS 6 Xposition Yposition Zposition Zrotation Yrotation Xrotation 
	JOINT LHipJoint
	{
		OFFSET 0.000000 0.000000 0.000000
		CHANNELS 3 Zrotation Yrotation Xrotation
		JOINT LeftUpLeg
		{
			OFFSET 1.363060 -1.794630 0.839290
			CHANNELS 3 Zrotation Yrotation Xrotation
			JOINT LeftLeg
			{
				OFFSET 2.448110 -6.726130 0.000000
				CHANNELS 3 Zrotation Yrotation Xrotation
				JOINT LeftFoot
				{
					OFFSET 2.562200 -7.039590 0.000000
					CHANNELS 3 Zrotation Yrotation Xrotation
					JOINT LeftToeBase
					{
						OFFSET 0.157640 -0.433110 2.322550
						CHANNELS 3 Zrotation Yrotation Xrotation
						End Site
						{
							OFFSET 0.000000 0.000000 0.000000
						}
					}
				}
			}
		}
	}
	JOINT RHipJoint
	{
		OFFSET 0.000000 0.000000 0.000000
		CHANNELS 3 Zrotation Yrotation Xrotation
		JOINT RightUpLeg
		{
			OFFSET -1.305520 -1.794630 0.839290
			CHANNELS 3 Zrotation Yrotation Xrotation
			JOINT RightLeg
			{
				OFFSET -2.542530 -6.985550 0.000000
				CHANNELS 3 Zrotation Yrotation Xrotation
				JOINT RightFoot
				{
					OFFSET -2.568260 -7.056230 0.000000
					CHANNELS 3 Zrotation Yrotation Xrotation
					JOINT RightToeBase
					{
						OFFSET -0.164730 -0.452590 2.363150
						CHANNELS 3 Zrotation Yrotation Xrotation
						End Site
						{
							OFFSET 0.000000 0.000000 0.000000
						}
					}
				}
			}
		}
	}
	JOINT LowerBack
	{
		OFFSET 0.000000 0.000000 0.000000
		CHANNELS 3 Zrotation Yrotation Xrotation
		JOINT Spine
		{
			OFFSET 0.028270 2.035590 -0.193380
			CHANNELS 3 Zrotation Yrotation Xrotation
			JOINT Spine1
			{
				OFFSET 0.056720 2.048850 -0.042750
				CHANNELS 3 Zrotation Yrotation Xrotation
				JOINT Neck
				{
					OFFSET 0.000000 0.000000 0.000000
					CHANNELS 3 Zrotation Yrotation Xrotation
					JOINT Neck1
					{
						OFFSET -0.054170 1.746240 0.172020
						CHANNELS 3 Zrotation Yrotation Xrotation
						JOINT Head
						{
							OFFSET 0.104070 1.761360 -0.123970
							CHANNELS 3 Zrotation Yrotation Xrotation
							End Site
							{
								OFFSET 0.000000 0.000000 0.000000
							}
						}
					}
				}
				JOINT LeftShoulder
				{
					OFFSET 0.000000 0.000000 0.000000
					CHANNELS 3 Zrotation Yrotation Xrotation
					JOINT LeftArm
					{
						OFFSET 3.362410 1.200890 -0.311210
						CHANNELS 3 Zrotation Yrotation Xrotation
						JOINT LeftForeArm
						{
							OFFSET 4.983000 -0.000000 -0.000000
							CHANNELS 3 Zrotation Yrotation Xrotation
							JOINT LeftHand
							{
								OFFSET 3.483560 -0.000000 -0.000000
								CHANNELS 3 Zrotation Yrotation Xrotation
								JOINT LeftFingerBase
								{
									OFFSET 0.000000 0.000000 0.000000
									CHANNELS 3 Zrotation Yrotation Xrotation
									JOINT LeftHandIndex1
									{
										OFFSET 0.715260 -0.000000 -0.000000
										CHANNELS 3 Zrotation Yrotation Xrotation
										End Site
										{
											OFFSET 0.000000 0.000000 0.000000
										}
									}
								}
								JOINT LThumb
								{
									OFFSET 0.000000 0.000000 0.000000
									CHANNELS 3 Zrotation Yrotation Xrotation
									End Site
									{
										OFFSET 0.000000 0.000000 0.000000
									}
								}
							}
						}
					}
				}
				JOINT RightShoulder
				{
					OFFSET 0.000000 0.000000 0.000000
					CHANNELS 3 Zrotation Yrotation Xrotation
					JOINT RightArm
					{
						OFFSET -3.136600 1.374050 -0.404650
						CHANNELS 3 Zrotation Yrotation Xrotation
						JOINT RightForeArm
						{
							OFFSET -5.241900 -0.000000 -0.000000
							CHANNELS 3 Zrotation Yrotation Xrotation
							JOINT RightHand
							{
								OFFSET -3.444170 -0.000000 -0.000000
								CHANNELS 3 Zrotation Yrotation Xrotation
								JOINT RightFingerBase
								{
									OFFSET 0.000000 0.000000 0.000000
									CHANNELS 3 Zrotation Yrotation Xrotation
									JOINT RightHandIndex1
									{
										OFFSET -0.622530 -0.000000 -0.000000
										CHANNELS 3 Zrotation Yrotation Xrotation
										End Site
										{
											OFFSET 0.000000 0.000000 0.000000
										}
									}
								}
								JOINT RThumb
								{
									OFFSET 0.000000 0.000000 0.000000
									CHANNELS 3 Zrotation Yrotation Xrotation
									End Site
									{
										OFFSET 0.000000 0.000000 0.000000
									}
								}
							}
						}
					}
				}
			}
		}
	}
}
MOTION
Frames: 10
Frame Time: 0.008333
13.377417 15.418018 -18.304505 -164.298686 -44.312196 170.813062 14.009299 15.214185 4.053490 -21.283868 -20.115168 -24.593474 14.140155 13.130770 77.232372 -7.306894 6.068810 13.948628 0.372010 0.681854 -3.538451 9.482782 -23.155710 12.965050 19.676700 23.305414 -41.803938 -16.289431 -4.179958 46.564820 -10.520301 -1.711647 -16.030082 -4.043399 0.051208 -22.973610 -10.949862 -2.437026 -2.847296 5.900757 0.896248 -3.088565 8.015298 -2.308060 21.664171 -3.134334 0.964592 -23.881453 5.507772 1.611507 16.190401 -2.351922 11.084280 10.688060 9.404885 13.402106 4.765769 -81.129164 -41.321562 18.896430 74.003871 -68.955481 -2.690414 -25.587497 -49.331177 20.035957 0.000001 -0.000001 -0.000001 -0.000000 0.000000 0.000000 -0.000000 -0.000000 -0.000000 -8.840376 -0.896318 3.262458 73.159745 30.470878 16.478006 1.290989 48.941858 20.554251 -21.079875 32.152931 -1.773380 0.000002 0.000001 -0.000002 -0.000000 0.000000 -0.000000 -0.000000 0.000000 -0.000000 
13.288664 15.404955 -18.483634 -164.583266 -45.011724 171.047134 12.902360 14.756350 3.975989 -20.477102 -20.261243 -26.449210 14.332362 13.224072 78.258008 -7.370296 5.516478 13.485746 0.781184 1.885559 -7.371303 11.228065 -22.312848 12.857038 16.630418 21.793224 -43.719515 -17.000874 -6.581359 48.217817 -9.856172 -0.078804 -16.490786 -4.260380 0.228317 -23.151894 -11.306114 -2.714899 -2.860574 6.104366 1.241950 -2.963394 7.621989 -1.816415 21.465789 -2.578368 0.780664 -23.585252 5.695639 1.312554 15.791055 -3.132973 10.715701 10.922446 9.322651 12.626509 3.956130 -81.227483 -39.087366 18.611343 71.857829 -68.367119 -1.218780 -26.232538 -49.259510 20.346134 0.000001 -0.000001 -0.000001 -0.000000 0.000000 -0.000000 0.000000 -0.000000 0.000000 -7.870945 -0.723138 3.798989 72.334115 32.683042 15.695480 0.978154 47.986779 21.180124 -21.039794 32.833399 -1.794122 0.000002 0.000001 -0.000002 0.000000 0.000000 0.000000 -0.000000 -0.000000 -0.000000 
13.196592 15.425526 -18.658258 -164.655499 -45.846688 171.027468 12.287053 14.064120 3.874604 -20.100095 -20.208821 -27.851449 14.095891 13.611506 78.262775 -6.993096 5.141131 12.846428 1.089292 1.374238 -8.526401 12.386132 -20.616428 12.312938 14.859782 19.221516 -43.856195 -16.948180 -8.146954 48.766691 -9.945031 0.458529 -17.855945 -4.063662 -0.074738 -23.706921 -12.062247 -3.332456 -2.892967 6.490467 0.787493 -2.920185 7.678170 -2.408105 21.769455 -2.389573 0.736227 -23.657566 5.846760 1.235667 15.982897 -3.305510 10.639018 10.550692 8.620166 13.850380 3.348281 -81.759086 -36.414024 17.759938 69.333565 -68.682785 -0.355728 -29.001945 -48.658492 21.505722 0.000001 -0.000001 -0.000001 0.000000 0.000000 0.000000 0.000000 -0.000000 -0.000000 -7.999517 0.538669 4.411193 71.615266 35.134393 15.902139 2.063575 48.298529 21.472641 -20.373556 32.884620 -1.591492 0.000002 0.000001 -0.000002 0.000000 0.000000 0.000000 0.000000 0.000000 -0.000000 
13.098709 15.433483 -18.825375 -164.760091 -46.650649 170.948327 11.686056 13.557248 3.707299 -19.961727 -20.210664 -29.012549 13.705367 13.832070 78.356155 -6.222458 4.850022 12.156589 1.083315 0.429168 -7.152532 12.849088 -18.810685 11.645649 13.466796 17.074347 -43.141435 -16.227768 -9.838935 49.349608 -10.378191 0.010618 -19.298163 -3.801940 -0.446243 -24.263383 -12.591949 -4.081911 -2.816894 6.796556 -0.198875 -2.890213 8.614674 -4.047573 22.917401 -3.455648 0.784146 -24.535292 5.916103 1.509519 16.159153 -2.919656 10.820720 10.536223 6.111668 16.658576 2.782570 -82.211850 -34.529389 16.876681 66.559624 -68.971343 0.793440 -31.214114 -48.625521 22.662825 0.000001 -0.000001 -0.000001 -0.000000 0.000000 0.000000 -0.000000 0.000000 0.000000 -9.783514 2.589170 4.734169 70.778406 38.369342 16.312701 2.932679 48.606796 21.462475 -19.589269 32.644773 -1.340817 0.000002 0.000001 -0.000002 -0.000000 0.000000 0.000000 0.000000 0.000000 0.000000 
12.980901 15.419820 -18.994895 -164.931722 -47.134684 170.916928 11.372297 13.589616 3.846624 -20.387432 -20.290297 -30.269909 12.959600 13.591421 78.669406 -4.547660 4.707250 11.303929 1.298585 -2.402370 -3.928158 12.279080 -18.017704 11.175073 13.851900 15.689590 -41.929035 -16.622215 -11.125052 49.658628 -9.995914 0.882383 -20.327401 -4.062560 -0.217819 -24.385388 -12.749991 -4.435319 -3.014495 6.779326 -0.140481 -2.782751 9.029580 -4.301721 23.393426 -3.862371 0.645640 -24.808258 6.174256 1.431285 16.263087 -2.742093 10.592112 11.607565 5.211038 17.146864 2.077460 -82.605104 -32.189748 17.770067 65.457562 -67.420707 3.293963 -27.855837 -49.816179 21.458901 0.000001 -0.000001 -0.000001 0.000000 0.000000 -0.000000 -0.000000 0.000000 0.000000 -10.486507 2.984550 4.818961 70.087408 40.381912 17.744772 2.544430 48.977236 20.992029 -21.045298 32.172905 -1.760618 0.000002 0.000001 -0.000002 0.000000 -0.000000 -0.000000 0.000000 0.000000 -0.000000 
12.874459 15.438438 -19.159610 -165.181578 -47.801742 170.821649 10.539999 13.199757 3.928434 -20.077975 -20.275103 -31.448939 11.685180 13.621351 78.623941 -2.800407 4.959818 10.527993 0.102052 -8.000393 5.495237 13.015559 -16.576167 10.504354 12.319261 13.359989 -40.989548 -15.768429 -12.314010 50.016201 -10.182462 0.665522 -21.469954 -3.880492 -0.488037 -24.869363 -13.341546 -4.875759 -2.925823 7.081786 0.039905 -2.662275 8.911023 -4.041971 22.521251 -3.537607 0.642883 -23.767928 6.382841 1.290300 16.490585 -2.069730 10.214139 10.685895 5.199491 16.498822 1.452175 -82.663042 -28.701410 18.697985 64.961859 -65.369775 2.804015 -28.848972 -49.633842 21.900810 0.000001 -0.000001 -0.000001 0.000000 0.000000 0.000000 -0.000000 0.000000 0.000000 -9.964231 3.959889 5.159546 68.892236 41.117497 18.872086 1.708571 49.351450 20.161091 -21.849766 31.367889 -1.966978 0.000002 0.000001 -0.000002 0.000000 0.000000 0.000000 0.000000 0.000000 0.000000 
12.773634 15.475826 -19.314114 -165.494766 -48.352433 170.973870 10.207864 12.952930 3.927361 -20.460922 -20.057648 -32.392145 11.168968 13.841842 77.578189 -2.030170 5.029309 8.762501 0.756649 -7.828825 2.117858 13.470119 -15.282868 9.970277 11.129654 11.771120 -39.630771 -14.950069 -13.289156 49.553514 -10.823337 0.184825 -22.321765 -4.647708 0.164307 -25.260311 -13.465710 -5.390843 -2.618929 7.383025 -0.078096 -2.602020 8.006634 -3.764481 22.266918 -2.714460 0.758255 -23.425748 5.797024 1.277499 16.646607 -1.791834 9.939550 9.358461 5.731848 16.775396 0.960881 -83.282080 -25.643137 18.760676 65.220671 -64.801727 2.075503 -31.316385 -49.536750 23.178025 0.000001 -0.000001 -0.000001 0.000000 -0.000000 0.000000 -0.000000 0.000000 -0.000000 -8.993716 4.738805 5.678703 68.044039 42.911973 18.479544 1.889174 50.171916 20.383130 -20.010733 31.393987 -1.418880 0.000002 0.000001 -0.000002 0.000000 0.000000 -0.000000 0.000000 0.000000 -0.000000 
12.651426 15.500751 -19.471922 -165.841467 -48.485203 171.354290 10.087742 13.213407 4.207585 -21.080583 -20.060414 -33.592569 11.662791 14.217188 76.421067 -1.878550 4.398222 7.335373 3.164248 -2.844271 -12.593769 13.305009 -14.811793 9.834758 10.977925 11.144309 -38.565613 -14.577288 -13.652722 49.113672 -10.677698 0.153015 -22.906471 -4.911618 0.337356 -25.651877 -13.159161 -5.871384 -2.884252 7.514943 -0.455648 -2.427534 7.508931 -4.042836 22.840480 -2.602062 0.858967 -23.746489 5.116490 1.399572 16.750351 -1.780056 9.671611 9.619454 5.144690 18.106574 0.305387 -83.848083 -23.064936 18.882008 65.170394 -64.215479 2.251260 -31.924684 -50.059366 23.777651 0.000001 -0.000001 -0.000001 0.000000 0.000000 0.000000 -0.000000 0.000000 0.000000 -9.039573 5.830417 6.141969 67.126575 45.508683 17.667100 2.644230 50.911464 21.131010 -19.139060 32.115353 -1.188046 0.000002 0.000001 -0.000002 -0.000000 -0.000000 0.000000 -0.000000 0.000000 -0.000000 
12.515886 15.524174 -19.638589 -166.192741 -48.522630 171.781713 9.981079 13.877859 4.596420 -21.742390 -20.395124 -34.711859 12.033481 14.568196 75.172425 -1.114468 3.640938 6.134043 3.080081 -2.273808 -13.444884 13.094409 -15.124922 10.044384 11.321497 10.734711 -38.014308 -14.482030 -13.164327 48.769517 -10.173016 0.442668 -23.329417 -4.342345 -0.329392 -26.265167 -12.753399 -6.244159 -3.461888 7.585374 -0.661527 -2.158724 7.072453 -4.120834 23.198852 -2.560978 0.972428 -23.787912 4.483134 1.530293 16.856852 -1.501805 9.428635 9.810084 4.652394 18.968248 -0.149863 -84.295045 -20.495605 19.349866 65.160925 -63.232456 1.662381 -33.639274 -50.038369 24.707910 0.000001 -0.000001 -0.000001 -0.000000 -0.000000 0.000000 0.000000 -0.000000 0.000000 -9.011565 6.803288 6.374928 66.171741 47.465942 17.430080 2.571689 51.602923 21.038646 -19.960599 32.194981 -1.436338 0.000002 0.000001 -0.000002 0.000000 -0.000000 -0.000000 -0.000000 0.000000 -0.000000 
12.391471 15.565015 -19.795045 -166.401657 -48.975208 171.947312 9.524828 14.011159 4.697770 -21.979811 -20.537725 -35.500121 10.682324 14.600867 73.813920 -0.313064 4.339891 4.703426 3.142705 -1.537724 -14.985023 13.636920 -14.677648 9.983866 10.679417 9.126008 -37.390288 -14.012460 -13.116944 48.240881 -9.963435 0.692385 -23.726860 -4.527346 -0.215058 -26.562002 -12.650922 -6.529331 -3.582501 7.883763 -0.564687 -1.945986 5.837587 -3.334082 23.098365 -1.448896 0.979302 -23.548220 3.961711 1.346427 17.016941 -1.869458 9.179585 10.591378 5.319717 18.495746 -0.780087 -84.488284 -17.769477 20.473966 65.548899 -61.480187 1.686265 -33.425100 -50.409697 24.782839 0.000001 -0.000001 -0.000001 -0.000000 -0.000000 0.000000 0.000000 -0.000000 0.000000 -7.350236 6.950963 6.867878 64.929373 49.177624 17.007608 2.244512 52.175566 20.779558 -19.811799 31.974288 -1.384217 0.000002 0.000001 -0.000002 -0.000000 -0.000000 -0.000000 0.000000 -0.000000 -0.000000 
